<?xml version="1.0" standalone="no"?>
<!DOCTYPE svg PUBLIC "-//W3C//DTD SVG 20010904//EN"
 "http://www.w3.org/TR/2001/REC-SVG-20010904/DTD/svg10.dtd">
<svg version="1.0" xmlns="http://www.w3.org/2000/svg"
 width="1024.000000pt" height="516.000000pt" viewBox="0 0 1024.000000 516.000000"
 preserveAspectRatio="xMidYMid meet">

<g transform="translate(0.000000,516.000000) scale(0.100000,-0.100000)"
fill="#000000" stroke="none">
<path d="M4655 5029 c-1126 -72 -2128 -403 -2810 -928 -190 -147 -395 -350
-523 -518 l-54 -73 -452 0 -451 0 -50 -24 c-57 -26 -106 -73 -132 -125 -17
-34 -18 -114 -21 -1481 l-2 -1445 30 -62 c35 -71 78 -111 165 -153 134 -65
-249 -61 4815 -58 l4595 3 67 32 c81 38 146 102 185 181 l28 57 3 1389 2 1389
-28 61 c-38 80 -108 148 -201 194 l-75 37 -393 3 -393 3 -62 82 c-91 119 -324
354 -465 467 -643 518 -1587 856 -2673 956 -207 19 -891 27 -1105 13z m-1365
-788 c0 -5 -18 -58 -40 -118 -22 -59 -40 -114 -40 -121 0 -9 13 -12 43 -10
l42 3 3 83 3 82 39 0 40 0 0 -85 c0 -78 2 -85 20 -85 17 0 20 -7 20 -40 0 -33
-3 -40 -20 -40 -17 0 -20 -7 -20 -45 l0 -45 -39 0 c-40 0 -40 0 -43 43 l-3 42
-107 3 c-60 1 -108 6 -108 9 0 4 28 80 61 170 l62 163 43 0 c24 0 44 -4 44 -9z
m1150 -36 c56 -39 84 -97 84 -175 0 -71 -15 -108 -61 -154 -42 -43 -83 -56
-178 -56 l-85 0 0 210 0 209 58 3 c80 4 140 -8 182 -37z m380 0 l0 -45 -85 0
-85 0 0 -45 0 -45 65 0 65 0 0 -40 0 -40 -65 0 -65 0 0 -45 0 -45 85 0 85 0 0
-45 0 -46 -127 3 -128 3 -3 205 c-1 112 0 210 2 217 4 10 38 13 131 13 l125 0
0 -45z m411 -229 c3 2 48 61 99 131 51 70 97 132 101 138 5 5 9 -85 9 -208 l0
-217 -45 0 -44 0 -3 82 -3 82 -55 -77 c-30 -42 -58 -77 -61 -77 -3 0 -32 36
-65 81 l-59 81 -3 -86 -3 -86 -39 0 -40 0 0 216 0 217 103 -141 c56 -77 105
-138 108 -136z m625 -138 c5 -16 0 -18 -39 -18 -40 0 -46 3 -57 30 -12 29 -14
30 -86 30 -72 0 -74 -1 -89 -30 -14 -27 -21 -30 -60 -30 -25 0 -45 1 -45 3 0
2 34 79 76 173 42 93 85 189 96 213 l19 45 89 -199 c49 -109 92 -206 96 -217z
m1021 389 c70 -37 122 -119 123 -195 0 -93 -67 -182 -158 -208 -211 -62 -367
190 -219 351 23 26 60 53 82 61 47 17 129 13 172 -9z m-2917 -27 l0 -39 -77
-3 c-72 -3 -78 -5 -81 -25 -3 -21 1 -23 45 -23 80 0 153 -68 153 -142 -1 -41
-36 -104 -72 -126 -39 -24 -115 -30 -151 -11 -26 14 -77 60 -77 70 0 4 16 13
36 19 31 10 41 9 70 -6 31 -17 37 -17 62 -4 15 9 31 28 36 43 21 58 -66 101
-123 61 -18 -13 -28 -14 -48 -5 -21 10 -24 16 -20 44 3 17 9 67 13 110 l6 77
114 0 114 0 0 -40z m2168 20 c41 -25 72 -76 72 -118 0 -40 -33 -108 -60 -122
-18 -10 -17 -14 25 -79 25 -38 45 -72 45 -75 0 -3 -22 -6 -49 -6 l-50 0 -60
93 -61 92 0 -92 0 -93 -45 0 -45 0 0 210 0 210 98 0 c79 0 103 -4 130 -20z
m362 -84 c-27 -57 -62 -131 -79 -164 -17 -34 -31 -64 -31 -67 0 -3 36 -5 80
-5 l80 0 0 -40 0 -40 -149 0 -150 0 80 165 c43 90 79 167 79 170 0 3 -36 5
-80 5 l-80 0 0 40 0 40 149 0 150 0 -49 -104z m-2830 -136 l0 -40 -105 0 -105
0 0 33 c0 19 3 37 7 40 3 4 51 7 105 7 l98 0 0 -40z m1960 -715 l0 -64 -32 -5
c-18 -3 -68 -8 -110 -11 l-78 -7 0 -68 0 -69 85 6 85 6 0 -66 0 -66 -42 -5
c-24 -3 -61 -7 -83 -8 l-40 -3 -3 -69 -3 -69 111 8 110 7 0 -65 c0 -72 -5 -77
-81 -77 -20 0 -57 -3 -82 -6 l-45 -6 56 -29 c32 -16 74 -44 95 -62 l39 -32
-57 -75 c-32 -41 -61 -79 -65 -83 -4 -5 -26 5 -49 21 -142 103 -325 27 -403
-168 -16 -42 -22 -77 -22 -145 -1 -83 2 -96 32 -157 38 -78 94 -130 158 -148
81 -23 177 5 238 69 17 17 33 31 36 31 4 0 35 -32 69 -71 l62 -72 -53 -54
c-33 -34 -81 -68 -127 -91 -72 -36 -79 -37 -180 -37 -102 0 -109 1 -169 34
-155 84 -252 268 -252 478 0 296 192 568 423 599 l47 7 0 332 0 333 98 7 c53
3 104 8 112 9 8 2 39 4 68 5 l52 1 0 -65z m1933 17 c15 -16 29 -41 30 -57 2
-24 -3 -30 -30 -38 -28 -9 -35 -7 -52 14 -16 19 -23 22 -37 14 -32 -20 -36
-54 -9 -81 13 -13 33 -24 44 -24 33 0 90 -57 97 -97 9 -46 -10 -104 -45 -142
l-29 -31 27 -14 c31 -16 67 -76 59 -98 -8 -20 -78 -41 -78 -23 0 39 -63 42
-75 4 -14 -42 2 -67 53 -83 96 -32 133 -109 97 -201 -44 -118 -193 -130 -235
-20 -15 39 -13 42 27 56 34 11 38 10 51 -10 19 -29 58 -27 78 4 21 32 10 60
-29 75 -74 27 -97 44 -117 85 -11 23 -20 50 -20 61 0 40 21 93 49 123 l28 30
-24 16 c-25 16 -63 71 -63 91 0 6 17 16 37 22 32 10 38 9 50 -8 17 -24 40 -25
65 -3 36 33 13 71 -53 87 -94 21 -123 152 -52 236 48 58 106 62 156 12z
m-2316 11 c-3 -5 -41 -95 -86 -200 l-81 -192 0 -150 0 -149 -55 -4 -55 -3 0
142 0 142 -86 187 c-65 144 -82 189 -72 196 7 4 35 7 63 6 l49 -3 46 -102 c25
-56 47 -104 50 -107 3 -3 27 49 54 114 46 113 49 119 79 123 59 7 98 7 94 0z
m2026 -238 c41 -110 78 -208 82 -217 6 -16 1 -18 -38 -18 -43 0 -46 2 -57 36
-10 30 -16 35 -34 30 -11 -3 -40 -6 -64 -6 -41 0 -44 -2 -59 -39 -12 -31 -22
-41 -42 -43 -23 -3 -26 -8 -29 -50 l-3 -47 -50 -7 -49 -7 0 -203 0 -204 -40 0
-40 0 0 200 0 200 -50 0 -50 0 0 45 c0 41 -2 45 -25 45 l-25 0 0 239 0 238 79
7 c88 8 123 -3 159 -48 42 -54 35 -158 -15 -224 l-24 -32 41 -75 c23 -41 47
-75 54 -75 8 0 44 89 91 223 105 300 95 276 105 252 4 -11 42 -110 83 -220z
m-2613 -76 l0 -271 115 7 115 7 0 -66 0 -65 -32 -5 c-30 -5 -275 -26 -298 -26
-6 0 -10 124 -10 339 0 379 -7 347 73 350 l37 1 0 -271z m1920 235 c43 -26 64
-71 64 -134 0 -57 -30 -133 -56 -143 -10 -4 -10 -11 3 -33 8 -16 28 -53 45
-83 20 -38 25 -56 16 -59 -9 -3 -12 -53 -12 -204 l0 -199 80 7 80 7 0 -51 0
-50 -67 -6 c-38 -4 -94 -9 -125 -12 l-58 -6 0 256 c0 147 4 256 9 256 5 0 -14
43 -42 95 l-52 94 -3 -99 c-1 -55 -6 -100 -11 -100 -5 0 -23 -3 -40 -6 l-31
-6 0 240 0 241 28 4 c69 10 145 6 172 -9z m-2300 -270 c0 -257 1 -275 18 -271
9 3 59 8 110 12 l92 7 0 -65 0 -64 64 -32 c111 -54 167 -148 174 -291 7 -143
-43 -282 -125 -348 l-36 -29 102 -187 c57 -103 101 -189 99 -191 -2 -3 -53 -6
-112 -7 l-108 -3 -118 214 c-65 117 -123 218 -129 224 -8 8 -11 -57 -11 -231
l0 -242 -29 0 c-15 0 -56 -3 -90 -6 l-61 -7 0 548 0 547 -60 -4 -60 -4 -18 48
c-19 54 -17 54 -144 42 l-67 -7 -16 -45 c-8 -25 -15 -50 -15 -56 0 -6 25 -24
55 -40 102 -53 196 -182 231 -317 22 -85 22 -244 0 -329 -66 -255 -252 -430
-460 -431 -85 -1 -115 6 -180 38 -146 74 -255 278 -256 480 0 200 99 413 242
519 32 23 63 44 68 46 6 2 -24 67 -67 145 l-78 142 -3 -150 -3 -149 -54 0 -55
0 0 339 0 338 61 7 c176 18 233 2 284 -79 27 -44 30 -57 30 -129 0 -88 -22
-145 -72 -192 l-24 -23 58 -106 c89 -163 80 -173 226 243 66 188 124 339 128
335 3 -5 56 -141 117 -303 61 -162 115 -307 120 -321 9 -21 16 -26 36 -22 l26
5 0 334 0 333 28 4 c15 2 39 5 55 6 l27 1 0 -276z m2068 229 c-2 -40 -7 -48
-23 -50 -11 -1 -46 -5 -77 -8 l-58 -6 0 -47 0 -47 60 3 60 4 0 -45 c0 -42 -2
-45 -31 -51 -17 -3 -44 -6 -60 -6 -28 0 -29 -2 -29 -51 l0 -50 82 7 81 7 -5
-60 c-5 -56 -1 -71 81 -291 83 -219 86 -231 67 -236 -49 -13 -67 -7 -82 29
-13 33 -17 35 -62 35 -71 0 -91 -9 -107 -46 -14 -33 -11 -42 100 -336 l113
-303 -56 -6 c-32 -4 -76 -7 -98 -8 l-42 -1 -28 76 c-15 42 -32 78 -38 80 -6 2
-76 -2 -156 -9 l-144 -12 -32 -85 -31 -85 -44 -7 c-24 -3 -68 -7 -98 -7 -47
-1 -52 1 -46 17 18 48 395 1121 395 1126 0 3 -11 6 -25 6 l-25 0 0 240 0 240
35 0 36 0 -1 -250 -1 -250 62 -166 c34 -91 65 -161 69 -157 4 4 33 82 65 173
32 91 60 171 63 179 4 12 -12 13 -101 7 l-107 -7 0 240 0 239 63 6 c34 3 76 8
92 9 88 11 86 12 83 -40z m-398 -37 l0 -43 -50 -7 -51 -7 3 -189 c2 -105 0
-190 -3 -190 -4 0 -21 -3 -38 -6 l-31 -6 0 191 0 191 -50 0 -50 0 0 45 c0 42
2 44 33 50 39 6 102 11 180 13 l57 2 0 -44z m3677 -32 c-3 -3 -12 -4 -19 -1
-8 3 -5 6 6 6 11 1 17 -2 13 -5z m-80 -10 c-3 -3 -12 -4 -19 -1 -8 3 -5 6 6 6
11 1 17 -2 13 -5z m-74 -11 c-7 -2 -19 -2 -25 0 -7 3 -2 5 12 5 14 0 19 -2 13
-5z m-70 -10 c-7 -2 -19 -2 -25 0 -7 3 -2 5 12 5 14 0 19 -2 13 -5z m-7093
-903 c0 -495 -1 -900 -2 -901 -2 0 -67 -6 -145 -13 l-143 -12 0 898 c0 494 1
898 3 899 1 1 61 7 132 14 72 6 136 13 143 13 9 2 12 -184 12 -898z m7023 893
c-7 -2 -19 -2 -25 0 -7 3 -2 5 12 5 14 0 19 -2 13 -5z m334 -15 c-3 -8 -6 -5
-6 6 -1 11 2 17 5 13 3 -3 4 -12 1 -19z m-410 6 c-3 -3 -12 -4 -19 -1 -8 3 -5
6 6 6 11 1 17 -2 13 -5z m-80 -10 c-3 -3 -12 -4 -19 -1 -8 3 -5 6 6 6 11 1 17
-2 13 -5z m321 -6 c19 -19 14 -73 -8 -93 -20 -18 -20 -18 5 -45 l26 -27 -23
-7 c-41 -10 -63 -6 -76 14 -8 14 -23 20 -46 20 -50 0 -66 -9 -66 -36 0 -14 -6
-24 -14 -24 -8 0 -22 -3 -31 -6 -14 -6 -16 1 -13 47 l3 54 90 13 c93 14 117
24 99 42 -12 12 -333 -27 -349 -42 -6 -7 16 -8 63 -3 43 4 72 3 72 -2 0 -21
-38 -42 -88 -49 -83 -11 -63 -27 24 -19 76 8 76 8 64 -14 -17 -32 -38 -38
-214 -60 -137 -18 -163 -18 -191 -7 -40 17 -53 50 -30 76 15 17 15 19 0 27
-15 9 -13 14 15 41 31 31 60 42 60 22 0 -16 22 -12 44 9 18 16 106 37 106 25
0 -3 -7 -15 -16 -28 -11 -18 -28 -26 -67 -31 -70 -9 -99 -29 -95 -63 3 -27 3
-27 82 -25 43 1 85 4 92 7 10 4 14 25 14 76 0 38 3 70 8 70 4 1 79 11 167 24
183 27 276 31 293 14z m-7611 -20 c-3 -7 -96 -214 -206 -459 -111 -246 -201
-453 -201 -460 0 -7 92 -204 205 -437 113 -234 205 -426 203 -427 -5 -4 -260
-25 -299 -25 l-36 0 -122 251 c-67 139 -126 248 -130 243 -5 -5 -59 -124 -121
-264 -62 -140 -117 -260 -122 -266 -8 -11 -324 -42 -332 -33 -2 2 83 200 190
439 107 239 199 449 205 465 11 29 -2 58 -195 459 -114 236 -205 430 -204 431
6 4 330 26 334 23 2 -2 59 -118 126 -257 l123 -253 124 276 c69 152 125 277
125 277 2 3 255 26 295 28 31 1 42 -3 38 -11z m7770 -30 c-3 -7 -5 -2 -5 12 0
14 2 19 5 13 2 -7 2 -19 0 -25z m-10 -50 c-3 -7 -5 -2 -5 12 0 14 2 19 5 13 2
-7 2 -19 0 -25z m-947 5 c-1 -5 -11 -21 -24 -36 -19 -24 -34 -30 -97 -38 -106
-14 -119 -17 -119 -35 0 -14 7 -15 38 -10 20 3 69 9 108 12 69 6 72 6 88 -19
11 -16 15 -34 11 -50 -12 -45 -47 -67 -131 -82 -125 -21 -194 -28 -194 -19 0
5 10 21 23 36 20 25 32 29 120 40 66 7 101 16 104 25 3 8 3 16 1 19 -3 2 -46
-1 -96 -7 -117 -16 -142 -7 -142 49 0 58 30 80 131 97 147 25 179 28 179 18z
m937 -45 c-3 -8 -6 -5 -6 6 -1 11 2 17 5 13 3 -3 4 -12 1 -19z m-1498 -35 c1
19 16 23 26 7 10 -17 -5 -52 -21 -46 -8 3 -14 1 -14 -4 0 -6 24 -10 53 -11 28
0 46 -3 40 -6 -7 -2 -13 -13 -13 -24 0 -15 -7 -19 -34 -19 -21 0 -36 6 -40 15
-4 13 -10 14 -26 5 -16 -9 -20 -8 -20 5 0 8 8 15 17 15 14 0 13 3 -5 16 -28
20 -28 42 1 53 16 6 24 4 29 -8 6 -14 7 -14 7 2z m1488 -15 c-3 -7 -5 -2 -5
12 0 14 2 19 5 13 2 -7 2 -19 0 -25z m-867 2 c0 -5 -15 -10 -32 -10 -25 0 -29
3 -18 10 20 13 50 13 50 0z m759 -26 c-14 -17 -56 -18 -62 -1 -4 7 -6 6 -6 -4
-1 -22 -85 -36 -107 -18 -9 7 -14 8 -14 1 0 -16 -60 -26 -73 -12 -18 17 19 40
57 36 17 -1 37 2 44 7 8 6 12 5 12 -3 0 -10 3 -10 15 0 13 11 18 10 31 -6 14
-19 14 -19 12 1 -3 16 4 21 37 25 47 7 71 -5 54 -26z m98 -16 c-3 -8 -6 -5 -6
6 -1 11 2 17 5 13 3 -3 4 -12 1 -19z m-372 -10 c-2 -24 -45 -40 -45 -18 0 8
-8 7 -25 -4 -15 -10 -39 -15 -60 -13 -19 3 -35 1 -35 -3 0 -14 -110 -22 -126
-10 -11 10 -14 9 -14 -4 0 -10 -4 -14 -10 -11 -5 3 -28 0 -51 -6 -30 -10 -42
-10 -48 -1 -5 8 -13 8 -31 -1 -14 -7 -40 -14 -57 -15 -29 -3 -33 -1 -32 20 1
17 3 18 6 6 6 -24 29 -23 36 1 4 18 59 30 172 36 22 1 51 5 64 10 16 5 21 4
17 -4 -4 -6 -14 -11 -22 -11 -8 0 -14 -4 -14 -10 0 -17 28 -11 49 12 16 17 23
19 34 9 12 -9 16 -8 21 6 6 15 8 15 17 3 8 -13 10 -13 19 0 8 13 11 13 19 1 7
-11 10 -11 17 2 8 13 31 20 85 26 10 1 15 -6 14 -21z m-1969 -236 c48 -128 84
-235 82 -238 -3 -3 -22 -7 -42 -11 -34 -5 -37 -4 -51 31 -15 35 -17 36 -68 36
-80 0 -93 -7 -106 -51 -11 -38 -13 -39 -56 -39 l-44 0 55 158 c31 86 72 203
92 260 19 56 39 99 43 95 4 -5 47 -113 95 -241z m787 188 c-3 -12 -8 -19 -11
-16 -5 6 5 36 12 36 2 0 2 -9 -1 -20z m1334 14 c-3 -3 -12 -4 -19 -1 -8 3 -5
6 6 6 11 1 17 -2 13 -5z m-80 -10 c-3 -3 -12 -4 -19 -1 -8 3 -5 6 6 6 11 1 17
-2 13 -5z m-1092 -54 c14 -27 25 -54 25 -60 0 -5 -16 -10 -35 -10 -19 0 -35 5
-35 11 0 13 -39 2 -58 -17 -20 -21 -53 -17 -59 6 -6 22 -19 26 -26 8 -2 -7 -3
-4 -1 7 2 11 4 29 4 41 0 24 75 61 127 63 29 1 35 -4 58 -49z m1022 44 c-3 -3
-12 -4 -19 -1 -8 3 -5 6 6 6 11 1 17 -2 13 -5z m1 -49 c16 -9 70 -21 118 -28
49 -7 83 -16 77 -20 -6 -4 -19 -4 -29 0 -11 4 -15 3 -11 -4 6 -10 -27 -27 -45
-24 -5 1 -8 -3 -8 -7 0 -4 -12 -9 -26 -10 -32 -2 -27 19 7 30 22 6 21 7 -6 5
-23 -2 -31 -7 -33 -24 -2 -13 -7 -23 -12 -23 -4 0 -4 16 0 35 8 35 -5 50 -17
19 -4 -12 -7 -13 -14 -3 -14 23 -21 2 -8 -22 8 -16 9 -24 1 -27 -6 -2 -8 -10
-5 -18 3 -8 0 -14 -7 -14 -6 0 -8 -5 -4 -12 4 -7 3 -8 -5 -4 -6 4 -18 2 -26
-4 -12 -10 -15 -9 -15 9 0 14 6 21 20 21 23 0 26 24 11 78 -8 27 -6 62 4 62 1
0 16 -7 33 -15z m-58 -47 c0 -13 3 -33 6 -45 6 -20 3 -23 -25 -23 -17 0 -30 3
-30 8 6 35 -3 52 -25 52 -14 0 -28 -5 -32 -12 -5 -8 0 -9 15 -5 13 3 20 3 17
0 -3 -3 0 -15 5 -26 13 -23 -2 -37 -32 -30 -10 3 -19 1 -19 -3 0 -5 -12 -10
-27 -10 -16 -1 -36 -5 -45 -9 -15 -6 -18 -2 -17 21 0 16 4 38 9 49 7 17 9 15
9 -12 1 -22 6 -33 16 -33 9 0 12 6 9 15 -4 8 -2 15 4 15 5 0 12 -7 16 -15 11
-30 25 -14 23 28 l-2 42 42 3 c41 3 42 2 49 -32 9 -50 28 -46 21 4 -3 22 -1
40 4 40 5 0 9 -10 9 -22z m-277 -12 c-12 -17 -25 -24 -41 -21 -29 5 -40 -19
-41 -97 -1 -34 -4 -38 -27 -38 -26 0 -26 1 -20 53 3 29 2 59 -4 67 -6 9 -10
10 -10 3 0 -6 -15 -13 -32 -15 -24 -2 -34 -9 -36 -23 -2 -11 -11 -28 -20 -37
-14 -16 -14 -20 1 -36 10 -10 17 -22 17 -25 0 -14 -68 -6 -80 9 -9 10 -26 14
-49 12 -29 -2 -37 -8 -39 -25 -3 -17 -10 -23 -28 -23 -21 0 -24 4 -24 40 0 22
1 40 3 41 1 0 38 6 81 12 45 7 81 17 84 25 2 7 -6 12 -20 12 -48 0 -288 -35
-288 -42 0 -9 10 -9 73 1 26 4 47 5 47 1 0 -16 -38 -38 -77 -45 -24 -4 -43
-11 -43 -16 0 -5 10 -7 23 -5 12 3 41 7 65 11 l43 5 -16 -24 c-19 -28 -21 -29
-202 -52 -124 -17 -132 -17 -158 0 -35 23 -41 43 -21 65 14 15 14 20 4 24 -22
9 40 59 63 52 11 -4 26 -2 32 4 7 5 33 13 57 17 l45 7 -16 -24 c-12 -17 -32
-27 -67 -34 -58 -11 -86 -33 -76 -58 7 -19 39 -21 118 -11 l46 7 1 41 c1 84
-18 76 320 122 167 23 310 42 317 43 9 1 8 -6 -5 -23z m463 -134 c-22 -5 -30
3 -21 18 5 8 11 7 22 -2 15 -12 14 -13 -1 -16z m-86 3 c0 -8 -8 -15 -17 -14
-11 0 -13 3 -5 6 6 2 10 9 6 14 -3 5 0 9 5 9 6 0 11 -7 11 -15z m50 8 c0 -1
-9 -7 -20 -13 -16 -8 -20 -8 -20 4 0 9 8 14 20 13 11 -1 20 -2 20 -4z m-130
-26 c0 -7 -4 -6 -10 3 -7 11 -10 11 -10 2 0 -7 -5 -10 -11 -6 -8 4 -7 9 2 15
15 9 29 3 29 -14z m40 8 c0 -8 -7 -15 -15 -15 -8 0 -15 7 -15 15 0 8 7 15 15
15 8 0 15 -7 15 -15z m-110 -10 c0 -8 -6 -15 -12 -15 -7 0 -24 -3 -37 -7 -17
-4 -22 -2 -19 8 2 7 15 16 29 20 37 11 39 10 39 -6z m-94 -10 c-3 -23 -16 -31
-26 -15 -6 9 -5 17 3 22 18 12 25 10 23 -7z m-46 -10 c0 -8 -4 -15 -10 -15 -5
0 -10 7 -10 15 0 8 5 15 10 15 6 0 10 -7 10 -15z m-76 -10 c3 -8 1 -15 -4 -15
-6 0 -10 7 -10 15 0 8 2 15 4 15 2 0 6 -7 10 -15z m36 1 c-7 -7 -14 -6 -21 1
-9 9 -7 12 9 10 14 -1 18 -5 12 -11z m-88 -4 c3 8 6 8 10 -3 4 -11 -2 -16 -23
-17 -16 -1 -29 2 -29 6 0 16 13 22 26 11 8 -7 13 -6 16 3z m-115 -17 c0 -8 -3
-15 -6 -16 -45 -6 -63 -7 -52 -2 11 5 11 7 0 15 -10 7 -8 8 8 5 13 -3 26 -1
29 4 8 14 21 11 21 -6z m63 6 c0 -5 -9 -11 -20 -14 -20 -5 -26 3 -13 16 9 10
33 8 33 -2z m-186 -22 c8 13 26 5 26 -10 0 -6 -15 -10 -32 -8 -18 1 -41 -2
-50 -6 -10 -4 -23 -5 -30 -2 -7 2 -21 0 -30 -5 -14 -7 -18 -5 -18 8 0 10 3 15
6 11 3 -3 16 -2 29 3 14 5 26 5 34 -3 8 -8 11 -8 11 2 0 8 6 11 15 7 8 -3 15
0 15 7 0 8 3 8 9 -2 6 -9 11 -10 15 -2z m1226 -284 c0 -162 -3 -295 -7 -295
-8 0 -847 -115 -1383 -190 -509 -71 -681 -93 -686 -88 -6 6 -35 560 -30 566 3
2 178 29 388 59 211 29 678 96 1038 147 360 52 661 94 668 95 9 1 12 -64 12
-294z m-7080 -155 l0 -440 23 0 c25 0 229 17 295 25 l42 5 0 -110 c0 -106 -1
-110 -22 -114 -13 -3 -117 -12 -233 -21 -115 -9 -227 -18 -247 -21 l-38 -6 0
555 0 556 33 4 c17 2 58 5 90 5 l57 2 0 -440z m5710 415 c0 -8 -7 -15 -15 -15
-8 0 -15 7 -15 15 0 8 7 15 15 15 8 0 15 -7 15 -15z m-96 -10 c-4 -8 -10 -15
-15 -15 -5 0 -9 7 -9 15 0 8 7 15 15 15 9 0 12 -6 9 -15z m56 0 c0 -8 -7 -15
-15 -15 -8 0 -15 7 -15 15 0 8 7 15 15 15 8 0 15 -7 15 -15z m-92 -7 c-2 -6
-10 -13 -16 -14 -9 -2 -9 -1 -1 3 8 4 7 8 -2 14 -11 7 -10 9 4 9 10 0 17 -5
15 -12z m-98 -10 c0 -10 3 -9 9 1 5 7 14 10 20 7 20 -13 11 -26 -16 -25 -16 1
-43 -1 -60 -5 -27 -6 -33 -5 -33 9 0 14 6 16 38 11 27 -5 33 -4 22 3 -13 9
-13 11 3 11 9 0 17 -6 17 -12z m-106 -24 c3 -8 2 -12 -4 -9 -6 3 -10 10 -10
16 0 14 7 11 14 -7z m1704 -906 l-3 -362 -610 -103 c-335 -56 -615 -103 -622
-103 -6 0 -36 48 -65 107 -69 140 -107 177 -225 221 -62 23 -105 32 -148 32
-72 1 -87 10 -108 72 -8 26 -28 63 -44 83 -27 34 -29 35 -101 35 -68 0 -76 2
-103 29 -31 31 -37 51 -16 51 13 0 1548 226 1832 270 99 15 188 28 198 29 16
1 17 -21 15 -361z m-2880 107 c-2 -35 -6 -67 -10 -70 -5 -5 -779 -95 -820 -95
-17 0 -19 7 -16 68 l3 67 330 37 c182 21 362 41 400 46 128 17 118 21 113 -53z
m-1840 -212 l-3 -67 -694 -78 c-382 -42 -698 -81 -702 -85 -5 -5 -55 -85 -112
-177 -56 -93 -109 -172 -117 -177 -14 -7 -3031 -350 -3072 -349 -11 0 -27 19
-43 50 -24 47 -25 57 -25 223 0 128 3 177 13 184 6 5 282 40 612 77 330 36
877 98 1215 136 338 39 737 84 885 100 1220 138 1786 202 1880 214 61 7 123
14 138 15 l28 1 -3 -67z"/>
<path d="M4280 4030 l0 -133 42 6 c79 11 121 62 115 140 -6 66 -45 107 -111
114 l-46 6 0 -133z"/>
<path d="M5655 4008 c-21 -44 -18 -51 23 -46 l29 3 -17 40 -17 40 -18 -37z"/>
<path d="M6710 4138 c-126 -85 -25 -281 118 -226 85 32 109 146 44 210 -42 43
-112 50 -162 16z"/>
<path d="M5990 4100 l0 -60 40 0 c27 0 47 7 60 20 43 43 9 100 -60 100 l-40 0
0 -60z"/>
<path d="M6770 3115 l0 -65 33 0 c41 0 68 27 69 69 1 43 -18 61 -63 61 l-39 0
0 -65z"/>
<path d="M7161 3057 c-6 -15 -13 -38 -17 -51 -5 -20 -2 -22 29 -18 35 4 35 4
22 35 -7 18 -15 39 -18 47 -3 11 -8 7 -16 -13z"/>
<path d="M6770 2895 l0 -95 38 0 c67 0 68 8 17 104 -26 47 -49 86 -51 86 -2 0
-4 -43 -4 -95z"/>
<path d="M6468 3153 c-15 -4 -18 -16 -18 -69 0 -63 0 -64 28 -64 57 0 93 55
70 106 -9 19 -40 36 -58 33 -3 -1 -13 -3 -22 -6z"/>
<path d="M3308 3023 l-28 -4 0 -95 0 -95 38 6 c74 12 82 16 97 45 20 39 19 93
-2 119 -19 22 -60 32 -105 24z"/>
<path d="M3830 2815 c-12 -36 -20 -68 -19 -70 2 -2 25 -1 51 2 l47 5 -21 57
c-11 31 -24 60 -28 64 -4 5 -18 -21 -30 -58z"/>
<path d="M4318 2353 l-28 -4 0 -150 0 -149 68 0 c84 0 129 21 159 75 44 79 22
194 -43 221 -32 13 -96 16 -156 7z"/>
<path d="M3543 2291 c-59 -15 -121 -60 -163 -118 -129 -180 -86 -445 85 -529
47 -22 64 -26 109 -21 101 10 191 81 243 192 25 54 28 71 28 165 0 86 -4 113
-21 151 -56 121 -173 187 -281 160z"/>
<path d="M6298 2465 l-17 -45 34 0 c20 0 35 5 35 12 0 17 -23 78 -30 78 -3 0
-13 -20 -22 -45z"/>
<path d="M6000 2097 c-19 -56 -36 -108 -38 -116 -3 -12 10 -13 74 -8 42 4 79
8 80 10 4 3 -69 203 -77 211 -3 3 -20 -41 -39 -97z"/>
<path d="M9470 2850 c0 -5 4 -10 9 -10 6 0 13 5 16 10 3 6 -1 10 -9 10 -9 0
-16 -4 -16 -10z"/>
<path d="M9260 2820 c0 -5 4 -10 9 -10 6 0 13 5 16 10 3 6 -1 10 -9 10 -9 0
-16 -4 -16 -10z"/>
<path d="M8866 2771 c-4 -5 3 -7 14 -4 23 6 26 13 6 13 -8 0 -17 -4 -20 -9z"/>
<path d="M8768 2763 c6 -2 18 -2 25 0 6 3 1 5 -13 5 -14 0 -19 -2 -12 -5z"/>
<path d="M7148 2540 l-16 -50 35 0 c32 0 35 2 29 25 -8 32 -25 75 -29 75 -2 0
-10 -22 -19 -50z"/>
<path d="M8170 2725 c-12 -23 -19 -26 -46 -22 -38 6 -49 -1 -49 -34 0 -20 4
-25 17 -21 9 2 19 10 22 18 6 16 66 19 66 4 0 -5 9 -10 20 -10 24 0 25 15 2
58 l-18 33 -14 -26z"/>
<path d="M8128 2713 c7 -3 16 -2 19 1 4 3 -2 6 -13 5 -11 0 -14 -3 -6 -6z"/>
<path d="M9077 2624 c-9 -10 2 -24 18 -24 9 0 12 6 9 15 -6 16 -17 19 -27 9z"/>
<path d="M9476 2335 c-9 -26 -7 -32 5 -12 6 10 9 21 6 23 -2 3 -7 -2 -11 -11z"/>
<path d="M9515 2310 c-21 -23 -9 -26 18 -6 10 8 14 17 9 20 -5 3 -17 -3 -27
-14z"/>
<path d="M9426 2266 c-22 -17 -76 -115 -67 -121 5 -2 11 4 14 15 6 24 35 27
44 4 5 -13 7 -13 14 -2 6 9 9 7 9 -8 0 -17 -8 -23 -35 -28 -19 -4 -35 -11 -35
-16 0 -6 -6 -10 -14 -10 -7 0 -16 -10 -19 -21 -4 -15 -11 -20 -21 -16 -11 5
-22 -6 -37 -36 -12 -23 -26 -45 -32 -48 -5 -4 4 -10 21 -14 17 -3 45 -22 61
-41 l31 -34 50 67 c96 131 131 235 97 287 -18 27 -60 39 -81 22z m-35 -207 c4
-13 7 -17 8 -8 1 10 11 15 31 15 36 0 39 -13 6 -26 -13 -5 -26 -15 -29 -22 -7
-19 -54 32 -49 55 5 24 25 16 33 -14z m-70 -28 c8 12 11 11 19 -1 15 -22 13
-83 -2 -77 -7 2 -12 11 -10 21 2 9 -4 16 -11 16 -18 0 -30 27 -20 43 5 8 8 7
11 -2 4 -11 6 -11 13 0z"/>
<path d="M9535 2270 c-3 -6 1 -7 9 -4 18 7 21 14 7 14 -6 0 -13 -4 -16 -10z"/>
<path d="M9548 2103 c7 -3 16 -2 19 1 4 3 -2 6 -13 5 -11 0 -14 -3 -6 -6z"/>
<path d="M9545 2080 c3 -5 8 -10 11 -10 2 0 4 5 4 10 0 6 -5 10 -11 10 -5 0
-7 -4 -4 -10z"/>
<path d="M9530 2060 c8 -5 20 -10 25 -10 6 0 3 5 -5 10 -8 5 -19 10 -25 10 -5
0 -3 -5 5 -10z"/>
<path d="M8918 2000 c2 -22 9 -43 15 -47 7 -4 8 0 4 11 -4 10 -7 31 -7 47 0
16 -3 29 -8 29 -4 0 -6 -18 -4 -40z"/>
<path d="M9538 2033 c7 -3 16 -2 19 1 4 3 -2 6 -13 5 -11 0 -14 -3 -6 -6z"/>
<path d="M8812 2010 c0 -14 4 -36 8 -50 6 -20 8 -21 8 -5 0 11 -4 34 -8 50 -7
27 -8 27 -8 5z"/>
<path d="M8981 2010 c0 -8 4 -24 9 -35 5 -13 9 -14 9 -5 0 8 -4 24 -9 35 -5
13 -9 14 -9 5z"/>
<path d="M8690 2006 c0 -2 9 -6 20 -9 11 -3 20 -1 20 4 0 5 -9 9 -20 9 -11 0
-20 -2 -20 -4z"/>
<path d="M8887 2003 c-9 -9 -9 -41 1 -46 4 -3 7 8 7 24 0 16 0 29 -1 29 0 0
-4 -3 -7 -7z"/>
<path d="M9515 2000 c4 -6 11 -8 16 -5 14 9 11 15 -7 15 -8 0 -12 -5 -9 -10z"/>
<path d="M8668 1994 c-25 -25 5 -75 44 -73 7 0 4 4 -7 8 -12 5 -22 20 -25 40
-3 18 -8 29 -12 25z"/>
<path d="M8850 1975 c0 -14 4 -25 9 -25 4 0 6 11 3 25 -2 14 -6 25 -8 25 -2 0
-4 -11 -4 -25z"/>
<path d="M8777 1966 c3 -15 10 -29 15 -32 6 -4 7 2 3 17 -10 35 -23 45 -18 15z"/>
<path d="M9490 1971 c0 -10 30 -24 37 -17 3 2 -5 9 -16 16 -12 6 -21 7 -21 1z"/>
<path d="M8340 1945 c-13 -16 -6 -65 10 -65 6 0 5 10 -2 25 -8 19 -8 28 2 40
7 8 10 15 7 15 -2 0 -10 -7 -17 -15z"/>
<path d="M8385 1950 c3 -5 8 -10 11 -10 2 0 4 5 4 10 0 6 -5 10 -11 10 -5 0
-7 -4 -4 -10z"/>
<path d="M8534 1938 c3 -13 6 -26 6 -30 0 -5 4 -8 10 -8 6 0 6 9 0 24 -5 13
-6 27 -3 30 4 3 1 6 -6 6 -9 0 -11 -8 -7 -22z"/>
<path d="M8600 1951 c0 -17 12 -41 20 -41 10 0 1 38 -11 46 -5 3 -9 1 -9 -5z"/>
<path d="M8757 1953 c-10 -9 -9 -23 1 -23 5 0 9 7 9 15 0 17 -1 18 -10 8z"/>
<path d="M8458 1914 c3 -17 7 -22 12 -13 9 13 2 39 -10 39 -4 0 -5 -12 -2 -26z"/>
<path d="M8480 1936 c0 -1 9 -9 20 -19 15 -13 20 -14 20 -3 0 7 -9 16 -20 19
-11 3 -20 4 -20 3z"/>
<path d="M8420 1910 c0 -11 4 -20 9 -20 5 0 7 9 4 20 -3 11 -7 20 -9 20 -2 0
-4 -9 -4 -20z"/>
<path d="M8575 1920 c-3 -5 -1 -10 4 -10 6 0 11 5 11 10 0 6 -2 10 -4 10 -3 0
-8 -4 -11 -10z"/>
<path d="M9450 1920 c-8 -5 -12 -12 -9 -15 4 -3 12 1 19 10 14 17 11 19 -10 5z"/>
<path d="M9388 1683 c-16 -2 -28 -7 -28 -11 -1 -9 73 -396 76 -401 2 -2 57 7
124 19 l122 23 -7 36 c-4 20 -9 38 -11 40 -2 2 -38 -2 -79 -9 -41 -7 -78 -11
-80 -8 -4 3 -64 299 -65 316 0 2 -10 1 -52 -5z"/>
<path d="M9336 1651 c-4 -5 -4 -21 -1 -34 5 -19 1 -26 -22 -37 -15 -7 -32 -12
-37 -11 -6 1 -20 0 -34 -4 -19 -5 -23 -11 -20 -35 1 -16 -4 -36 -14 -47 -9
-10 -18 -27 -20 -38 -2 -11 -18 -29 -35 -40 -35 -22 -37 -24 -24 -43 7 -11 32
-6 130 26 67 21 124 41 126 44 5 5 -33 219 -40 226 -2 2 -6 -1 -9 -7z"/>
<path d="M9104 1614 c-100 -65 -129 -183 -71 -286 26 -47 94 -94 147 -103 57
-10 138 17 178 58 l33 34 -35 23 -36 22 -31 -26 c-55 -46 -150 -28 -185 36 -8
13 -13 42 -14 65 0 46 35 98 78 114 19 7 23 14 18 32 -3 12 -6 30 -6 40 0 25
-29 21 -76 -9z"/>
<path d="M9522 1587 c-39 -20 -42 -24 -37 -52 15 -73 16 -73 90 -45 26 10 36
52 15 65 -5 3 -10 17 -10 31 0 29 -3 29 -58 1z"/>
<path d="M8743 1348 c-28 -123 -50 -224 -49 -225 1 -1 19 0 39 4 33 5 38 10
48 45 6 22 8 46 5 54 -3 8 -2 14 3 14 5 0 14 28 21 63 6 35 15 68 19 75 4 7
20 -7 43 -37 l36 -49 -39 -18 c-50 -22 -45 -29 8 -10 l39 14 34 -50 c33 -47
36 -49 70 -43 19 4 37 8 39 10 2 2 -12 25 -30 50 -31 43 -36 46 -69 41 -30 -4
-28 -3 13 11 26 9 47 22 47 30 0 16 -14 17 -41 3 -11 -6 -18 -7 -17 -3 3 7
-158 243 -165 243 -1 0 -25 -100 -54 -222z"/>
<path d="M9700 1230 c0 -29 3 -40 9 -31 5 7 14 11 20 7 7 -5 9 -1 5 8 -3 9
-11 13 -17 9 -6 -4 -8 0 -5 9 4 8 2 21 -3 29 -6 9 -9 -1 -9 -31z"/>
<path d="M9653 1245 c-3 -9 -3 -19 1 -22 3 -4 6 1 6 10 0 8 6 18 13 20 9 4 9
6 -1 6 -7 1 -15 -6 -19 -14z"/>
<path d="M9610 1246 c0 -2 7 -6 15 -10 8 -3 15 -1 15 4 0 6 -7 10 -15 10 -8 0
-15 -2 -15 -4z"/>
<path d="M9561 1218 c1 -17 3 -18 6 -5 2 9 8 17 13 17 5 0 11 -8 14 -17 4 -14
4 -14 3 2 -3 30 -37 33 -36 3z"/>
<path d="M9451 1208 c2 -25 17 -63 18 -46 1 9 7 19 14 21 7 3 4 6 -7 6 -12 1
-16 6 -12 16 3 8 1 15 -4 15 -6 0 -10 -6 -9 -12z"/>
<path d="M9611 1204 c0 -11 3 -14 6 -6 3 7 2 16 -1 19 -3 4 -6 -2 -5 -13z"/>
<path d="M9630 1215 c0 -5 5 -17 10 -25 5 -8 10 -10 10 -5 0 6 -5 17 -10 25
-5 8 -10 11 -10 5z"/>
<path d="M9400 1206 c0 -2 9 -6 20 -9 11 -3 20 -1 20 4 0 5 -9 9 -20 9 -11 0
-20 -2 -20 -4z"/>
<path d="M9327 1194 c-10 -11 -8 -56 2 -50 5 3 7 15 4 26 -3 11 0 20 6 20 6 0
11 -6 11 -14 0 -8 3 -21 6 -29 3 -10 -2 -17 -13 -20 -15 -4 -16 -5 -1 -6 23
-1 29 11 20 44 -8 29 -23 41 -35 29z"/>
<path d="M9533 1186 c1 -11 9 -21 17 -23 10 -3 11 -2 4 4 -6 4 -14 15 -17 23
-5 11 -6 9 -4 -4z"/>
<path d="M9400 1174 c0 -10 5 -26 10 -34 8 -11 9 -7 4 15 -8 37 -14 45 -14 19z"/>
<path d="M9261 1164 c0 -11 3 -14 6 -6 3 7 2 16 -1 19 -3 4 -6 -2 -5 -13z"/>
<path d="M9169 1153 c-12 -16 -12 -17 2 -6 9 7 20 9 24 5 5 -4 5 -1 1 6 -9 16
-11 15 -27 -5z"/>
<path d="M9301 1154 c0 -11 3 -14 6 -6 3 7 2 16 -1 19 -3 4 -6 -2 -5 -13z"/>
<path d="M9436 1153 c-6 -14 -5 -15 5 -6 7 7 10 15 7 18 -3 3 -9 -2 -12 -12z"/>
<path d="M9222 1140 c0 -14 2 -19 5 -12 2 6 2 18 0 25 -3 6 -5 1 -5 -13z"/>
<path d="M9091 1134 c0 -11 3 -14 6 -6 3 7 2 16 -1 19 -3 4 -6 -2 -5 -13z"/>
<path d="M9072 1120 c0 -14 2 -19 5 -12 2 6 2 18 0 25 -3 6 -5 1 -5 -13z"/>
<path d="M9273 1130 c4 -18 37 -27 37 -10 0 6 -5 8 -11 4 -6 -3 -16 0 -21 7
-8 12 -9 11 -5 -1z"/>
<path d="M8988 1120 c18 -21 16 -64 -3 -56 -8 3 -15 1 -15 -5 0 -6 8 -9 18 -7
24 4 28 51 5 68 -15 12 -16 12 -5 0z"/>
<path d="M8962 1100 c0 -14 2 -19 5 -12 2 6 2 18 0 25 -3 6 -5 1 -5 -13z"/>
<path d="M9170 1113 c0 -19 21 -27 33 -13 9 10 9 11 -2 5 -8 -4 -17 -2 -22 6
-6 9 -9 10 -9 2z"/>
<path d="M8890 1091 c0 -13 4 -19 10 -16 6 3 13 -1 16 -9 5 -13 8 -13 20 -1
16 16 19 45 4 45 -5 0 -10 -10 -10 -22 l-1 -23 -19 24 c-20 23 -20 23 -20 2z"/>
<path d="M9101 1094 c0 -11 3 -14 6 -6 3 7 2 16 -1 19 -3 4 -6 -2 -5 -13z"/>
<path d="M9238 1103 c7 -3 16 -2 19 1 4 3 -2 6 -13 5 -11 0 -14 -3 -6 -6z"/>
<path d="M8850 1093 c8 -3 18 -11 22 -17 5 -7 8 -4 8 7 0 11 -7 17 -22 16 -16
0 -18 -2 -8 -6z"/>
<path d="M8795 1080 c3 -5 8 -10 11 -10 2 0 4 5 4 10 0 6 -5 10 -11 10 -5 0
-7 -4 -4 -10z"/>
<path d="M9036 1077 c3 -10 9 -15 12 -12 3 3 0 11 -7 18 -10 9 -11 8 -5 -6z"/>
<path d="M8701 1065 c0 -16 27 -49 42 -51 10 -1 12 6 9 25 l-6 26 -7 -25 c-4
-14 -7 -20 -8 -14 -1 14 -30 52 -30 39z"/>
<path d="M8840 1056 c0 -8 4 -17 9 -20 5 -4 7 3 4 14 -6 23 -13 26 -13 6z"/>
<path d="M8812 1040 c0 -14 2 -19 5 -12 2 6 2 18 0 25 -3 6 -5 1 -5 -13z"/>
<path d="M8876 1043 c-6 -14 -5 -15 5 -6 7 7 10 15 7 18 -3 3 -9 -2 -12 -12z"/>
<path d="M8776 1023 c-6 -14 -5 -15 5 -6 7 7 10 15 7 18 -3 3 -9 -2 -12 -12z"/>
<path d="M8690 1009 c0 -5 5 -7 10 -4 6 3 10 8 10 11 0 2 -4 4 -10 4 -5 0 -10
-5 -10 -11z"/>
<path d="M3447 1103 c-4 -3 -7 -13 -7 -21 0 -12 3 -12 15 -2 27 22 38 -3 15
-32 -26 -33 -25 -38 4 -38 26 0 44 16 25 22 -9 3 -8 10 2 25 10 18 11 24 0 37
-14 16 -42 21 -54 9z"/>
<path d="M3367 1094 c-4 -4 -7 -14 -7 -23 0 -12 3 -12 12 -3 15 15 38 15 38 0
0 -6 -10 -22 -22 -35 -26 -28 -19 -37 21 -28 21 4 29 11 24 18 -5 7 -8 26 -8
42 0 25 -5 31 -25 33 -14 2 -29 0 -33 -4z"/>
<path d="M3286 1074 c-16 -42 12 -91 44 -74 24 13 31 36 20 65 -11 29 -54 35
-64 9z m48 -20 c8 -20 -1 -34 -20 -34 -8 0 -14 10 -14 25 0 28 24 34 34 9z"/>
<path d="M3207 1074 c-15 -15 -6 -24 18 -18 31 8 34 -15 5 -41 -29 -27 -25
-38 13 -30 38 9 45 14 31 23 -6 4 -10 21 -10 37 1 25 -3 31 -24 33 -14 2 -29
0 -33 -4z"/>
<path d="M3053 1063 c-24 -5 -27 -18 -17 -72 6 -29 10 -32 33 -26 14 4 28 11
29 16 3 6 9 6 17 -1 7 -6 20 -8 29 -4 23 9 20 45 -4 51 -23 6 -27 23 -5 23 8
0 15 5 15 11 0 6 -10 9 -22 7 -31 -4 -37 -44 -9 -53 12 -3 21 -11 21 -17 0 -5
-7 -8 -15 -4 -8 3 -26 1 -40 -4 -25 -9 -36 2 -15 15 16 10 12 25 -5 19 -8 -4
-15 -1 -15 4 0 6 9 14 20 17 18 6 29 27 13 24 -5 -1 -18 -4 -30 -6z"/>
<path d="M2990 1043 c-8 -13 -13 -14 -16 -5 -3 6 -12 12 -21 12 -11 0 -10 -6
6 -29 12 -16 21 -36 21 -45 0 -9 5 -16 10 -16 6 0 10 14 10 31 0 17 5 39 10
50 14 24 -5 26 -20 2z"/>
<path d="M2900 1016 c0 -19 3 -41 6 -50 7 -17 54 -22 54 -6 0 6 -9 10 -20 10
-16 0 -20 7 -20 34 0 19 -4 38 -10 41 -6 4 -10 -8 -10 -29z"/>
<path d="M2830 1021 c0 -10 3 -33 6 -50 5 -24 12 -31 30 -31 12 0 26 5 29 10
3 6 -3 10 -13 10 -22 0 -32 18 -32 56 0 13 -4 24 -10 24 -5 0 -10 -8 -10 -19z"/>
<path d="M2758 980 c-14 -45 -10 -68 7 -39 4 6 19 7 37 3 l31 -6 -23 38 c-35
58 -35 58 -52 4z"/>
<path d="M2654 1005 c3 -9 6 -32 6 -51 0 -19 5 -34 10 -34 6 0 10 10 10 23 1
20 2 21 14 5 15 -20 42 -25 29 -5 -4 6 -8 26 -8 42 0 27 -4 30 -34 33 -28 3
-33 1 -27 -13z m46 -14 c0 -6 -4 -13 -10 -16 -5 -3 -10 1 -10 9 0 9 5 16 10
16 6 0 10 -4 10 -9z"/>
<path d="M2550 998 c0 -7 3 -30 6 -50 6 -34 10 -38 35 -38 16 0 29 5 29 10 0
6 -9 10 -20 10 -11 0 -20 5 -20 10 0 6 5 10 10 10 6 0 10 5 10 10 0 6 -7 10
-15 10 -8 0 -15 5 -15 10 0 6 9 10 20 10 11 0 20 5 20 10 0 6 -13 10 -30 10
-17 0 -30 -5 -30 -12z"/>
<path d="M2268 993 c6 -2 18 -2 25 0 6 3 1 5 -13 5 -14 0 -19 -2 -12 -5z"/>
<path d="M2470 966 c0 -19 3 -41 6 -50 9 -24 41 -19 60 9 15 23 15 27 0 50
-10 16 -26 25 -41 25 -22 0 -25 -4 -25 -34z m50 -1 c10 -12 10 -18 0 -30 -19
-23 -30 -18 -30 15 0 33 11 38 30 15z"/>
<path d="M2306 955 c6 -25 -8 -35 -21 -15 -3 5 -14 14 -23 19 -15 8 -17 4 -14
-32 5 -48 22 -75 22 -34 0 30 11 35 30 12 7 -8 16 -15 21 -15 10 0 12 50 3 74
-10 26 -25 18 -18 -9z"/>
<path d="M2361 945 c-6 -22 -11 -42 -11 -45 0 -3 18 -5 39 -5 39 0 39 0 26 25
-7 14 -20 34 -28 45 -14 18 -15 17 -26 -20z"/>
<path d="M2099 956 c-8 -8 3 -96 12 -96 5 0 9 7 9 15 0 8 7 15 15 15 21 0 35
31 24 52 -9 16 -49 25 -60 14z m43 -31 c0 -5 -5 -11 -11 -13 -6 -2 -11 4 -11
13 0 9 5 15 11 13 6 -2 11 -8 11 -13z"/>
<path d="M2181 937 c-20 -51 -24 -77 -12 -77 6 0 11 5 11 11 0 7 11 9 30 6 36
-8 37 -3 6 48 l-25 40 -10 -28z"/>
<path d="M1983 942 c-24 -4 -30 -31 -17 -80 6 -20 11 -22 33 -16 14 4 37 8 51
9 14 1 28 3 33 4 16 3 6 43 -13 48 -24 6 -27 23 -3 23 13 0 14 3 6 11 -7 7
-19 9 -27 6 -23 -9 -20 -44 4 -52 11 -3 20 -11 20 -16 0 -6 -9 -7 -20 -4 -11
3 -20 2 -20 -3 0 -5 -10 -8 -22 -7 -34 4 -35 5 -15 16 21 12 23 31 2 23 -24
-10 -17 12 7 23 25 11 13 21 -19 15z"/>
<path d="M1854 914 c3 -9 6 -31 6 -50 0 -29 3 -34 24 -34 14 0 28 5 31 10 3 6
-3 10 -14 10 -12 0 -21 5 -21 10 0 6 7 10 15 10 8 0 15 5 15 10 0 6 -7 10 -15
10 -8 0 -15 5 -15 10 0 6 7 10 15 10 8 0 15 5 15 10 0 6 -14 10 -31 10 -24 0
-30 -3 -25 -16z"/>
<path d="M3190 915 c-7 -9 -9 -19 -5 -23 4 -4 10 -1 12 6 6 15 33 16 33 1 0
-6 -9 -24 -21 -40 l-20 -29 30 0 c16 0 33 5 36 10 3 6 0 10 -9 10 -12 0 -12 5
-3 30 10 25 9 33 -3 40 -21 14 -36 12 -50 -5z"/>
<path d="M1770 908 c0 -7 3 -30 6 -50 8 -44 30 -50 59 -18 28 31 10 74 -33 78
-21 2 -32 -1 -32 -10z m58 -32 c5 -22 -19 -40 -30 -23 -4 7 -8 20 -8 30 0 25
34 18 38 -7z"/>
<path d="M3117 913 c-4 -3 -7 -13 -7 -21 0 -12 3 -12 15 -2 29 24 37 -1 10
-36 l-26 -34 23 0 c32 0 57 17 41 28 -8 5 -9 13 -3 22 18 29 -29 68 -53 43z"/>
<path d="M1645 890 c-22 -24 -13 -66 15 -75 52 -16 90 36 55 75 -10 11 -26 20
-35 20 -9 0 -25 -9 -35 -20z m55 -15 c18 -21 5 -47 -22 -43 -26 3 -37 36 -16
49 18 12 24 11 38 -6z"/>
<path d="M3032 894 c-7 -13 -12 -14 -29 -3 -22 13 -53 7 -53 -11 0 -6 10 -8
25 -4 32 8 31 -1 -2 -44 l-26 -35 33 7 c38 7 51 17 33 23 -7 2 -9 11 -6 20 5
12 10 9 28 -12 18 -24 24 -26 43 -16 24 13 28 41 12 72 -13 23 -46 25 -58 3z
m44 -19 c4 -8 3 -23 0 -32 -6 -15 -8 -15 -23 -1 -16 17 -12 48 7 48 6 0 13 -7
16 -15z"/>
<path d="M1565 890 c-3 -5 1 -10 9 -10 12 0 16 -10 16 -34 0 -19 5 -38 10 -41
6 -4 10 10 10 34 0 23 5 41 10 41 6 0 10 5 10 10 0 6 -13 10 -29 10 -17 0 -33
-4 -36 -10z"/>
<path d="M1510 845 c-12 -44 -7 -73 9 -47 5 9 17 11 36 6 l29 -7 -24 39 c-35
58 -36 59 -50 9z"/>
<path d="M2838 840 c-14 -45 -10 -68 7 -39 4 6 19 7 37 4 l29 -7 -27 44 c-15
23 -28 44 -28 45 -1 2 -9 -20 -18 -47z"/>
<path d="M1456 853 l7 -27 -31 22 c-16 12 -32 22 -34 22 -2 0 -2 -20 0 -45 4
-47 22 -63 22 -19 l0 25 30 -21 30 -21 0 30 c0 35 -9 61 -21 61 -5 0 -6 -12
-3 -27z"/>
<path d="M2739 876 c-8 -8 3 -96 12 -96 5 0 9 9 9 21 0 21 0 21 19 -2 19 -24
40 -22 25 2 -4 7 -8 27 -8 44 -1 24 -6 31 -26 33 -14 2 -28 1 -31 -2z m41 -31
c0 -8 -4 -15 -10 -15 -5 0 -10 7 -10 15 0 8 5 15 10 15 6 0 10 -7 10 -15z"/>
<path d="M1307 852 c-22 -24 -21 -45 1 -65 23 -21 46 -22 66 -1 30 30 9 84
-33 84 -10 0 -25 -8 -34 -18z m58 -32 c0 -18 -6 -26 -21 -28 -23 -3 -37 18
-27 44 10 25 48 13 48 -16z"/>
<path d="M2654 848 c3 -13 6 -35 6 -50 0 -16 5 -28 10 -28 6 0 10 10 10 22 l0
22 16 -22 c15 -22 41 -21 27 1 -4 7 -8 26 -8 42 0 27 -4 30 -34 33 -31 3 -33
2 -27 -20z m46 -7 c0 -17 -18 -21 -24 -6 -3 9 0 15 9 15 8 0 15 -4 15 -9z"/>
<path d="M1227 853 c-2 -5 -2 -27 1 -50 4 -40 6 -43 33 -43 16 0 29 5 29 10 0
6 -9 10 -20 10 -11 0 -20 5 -20 10 0 6 7 10 15 10 23 0 18 17 -7 25 l-23 8 23
4 c12 2 22 9 22 14 0 11 -47 12 -53 2z"/>
<path d="M2558 854 c-8 -14 3 -94 13 -94 11 0 11 57 0 84 -4 11 -10 15 -13 10z"/>
<path d="M2592 813 c3 -43 5 -48 27 -48 13 0 26 5 28 12 3 7 -3 9 -16 6 -26
-7 -27 5 -3 23 16 13 16 13 0 14 -22 0 -24 20 -3 20 8 0 15 5 15 10 0 6 -11
10 -26 10 -24 0 -25 -2 -22 -47z"/>
<path d="M1150 800 c0 -27 5 -50 10 -50 6 0 10 7 10 15 0 8 7 15 15 15 8 0 19
9 25 21 14 26 -3 49 -36 49 -22 0 -24 -4 -24 -50z m42 15 c0 -5 -5 -11 -11
-13 -6 -2 -11 4 -11 13 0 9 5 15 11 13 6 -2 11 -8 11 -13z"/>
<path d="M2480 840 c0 -5 4 -10 10 -10 5 0 13 -18 16 -40 4 -22 11 -40 17 -40
6 0 7 16 3 40 -4 25 -2 40 4 40 5 0 10 5 10 10 0 6 -13 10 -30 10 -16 0 -30
-4 -30 -10z"/>
<path d="M1111 812 c-16 -39 -24 -40 -51 -5 l-21 27 3 -44 c2 -24 9 -45 16
-48 8 -2 10 2 5 15 -6 16 -5 17 11 3 16 -13 20 -12 32 5 12 17 14 17 14 2 0
-9 5 -17 10 -17 11 0 12 46 1 74 -6 17 -9 15 -20 -12z"/>
<path d="M2382 793 c3 -44 5 -48 31 -51 15 -2 27 1 27 7 0 6 -9 11 -20 11 -11
0 -20 5 -20 10 0 6 7 10 15 10 8 0 15 5 15 10 0 6 -7 10 -15 10 -8 0 -15 5
-15 10 0 6 9 10 20 10 11 0 20 5 20 10 0 6 -14 10 -31 10 -30 0 -30 -1 -27
-47z"/>
<path d="M2297 823 c-2 -5 -2 -27 1 -50 3 -36 8 -43 26 -43 12 0 27 5 34 12
19 19 15 66 -7 78 -23 12 -48 13 -54 3z m48 -43 c0 -13 -6 -25 -12 -27 -9 -3
-13 6 -13 27 0 21 4 30 13 28 6 -3 12 -15 12 -28z"/>
<path d="M864 795 c-15 -23 -15 -27 0 -51 13 -18 24 -24 43 -22 37 4 42 28 6
25 -24 -2 -28 2 -28 23 0 18 6 26 23 28 26 4 20 22 -8 22 -11 0 -27 -11 -36
-25z"/>
<path d="M971 798 c-26 -71 -25 -76 10 -57 15 7 24 7 35 -2 9 -7 14 -8 14 -1
0 12 -40 82 -46 82 -3 0 -8 -10 -13 -22z"/>
<path d="M2203 813 c-21 -8 -15 -44 7 -50 31 -8 24 -20 -16 -28 -35 -6 -62 3
-36 12 17 6 15 23 -3 23 -8 0 -15 5 -15 10 0 6 9 10 20 10 11 0 20 5 20 10 0
6 -14 10 -31 10 -31 0 -31 -1 -25 -37 3 -21 6 -44 6 -50 0 -8 13 -13 30 -13
17 0 30 4 30 8 0 4 12 8 28 7 35 0 45 39 13 50 -12 3 -21 10 -21 15 0 5 7 7
16 3 11 -4 15 -2 12 7 -5 16 -18 20 -35 13z"/>
<path d="M777 803 c-7 -14 5 -93 14 -93 5 0 9 7 9 17 0 14 2 14 20 -2 22 -20
37 -15 24 7 -5 7 -7 24 -5 37 1 13 -3 28 -11 32 -16 11 -45 12 -51 2z m43 -28
c0 -8 -4 -15 -10 -15 -5 0 -10 7 -10 15 0 8 5 15 10 15 6 0 10 -7 10 -15z"/>
<path d="M712 753 c3 -44 5 -48 31 -51 15 -2 27 1 27 7 0 6 -9 11 -20 11 -11
0 -20 5 -20 10 0 6 7 10 15 10 8 0 15 5 15 10 0 6 -7 10 -15 10 -8 0 -15 5
-15 10 0 6 7 10 15 10 8 0 15 5 15 10 0 6 -11 10 -26 10 -24 0 -25 -2 -22 -47z"/>
<path d="M2040 793 c0 -5 7 -18 15 -29 8 -10 15 -29 15 -41 0 -13 5 -23 10
-23 6 0 10 14 10 31 0 17 5 39 10 50 8 13 7 19 0 19 -6 0 -13 -7 -17 -15 -5
-14 -8 -14 -24 1 -11 9 -19 13 -19 7z"/>
<path d="M598 748 c-4 -52 -31 -61 -36 -13 -5 46 -22 55 -22 13 0 -20 7 -44
16 -52 18 -19 20 -19 45 -6 14 8 19 21 19 50 0 54 -18 60 -22 8z"/>
<path d="M630 763 c0 -38 10 -73 21 -73 5 0 9 6 9 13 0 7 9 18 21 25 32 21 22
56 -18 60 -30 3 -33 1 -33 -25z m48 -5 c-6 -18 -28 -21 -28 -4 0 9 7 16 16 16
9 0 14 -5 12 -12z"/>
<path d="M1994 743 c3 -25 7 -48 9 -49 1 -1 14 0 30 3 33 6 36 20 5 25 -18 2
-24 11 -26 36 -2 17 -8 32 -14 32 -7 0 -9 -16 -4 -47z"/>
<path d="M1924 749 c3 -17 6 -38 6 -45 0 -9 11 -14 30 -14 17 0 30 5 30 10 0
6 -9 10 -20 10 -14 0 -21 9 -26 35 -3 19 -11 35 -16 35 -6 0 -8 -13 -4 -31z"/>
<path d="M473 753 c-4 -11 1 -22 15 -31 25 -16 30 -34 7 -26 -8 4 -15 2 -15
-4 0 -13 21 -21 38 -14 20 7 14 38 -10 55 l-23 16 23 0 c28 1 19 21 -9 21 -11
0 -23 -8 -26 -17z"/>
<path d="M1754 756 c-9 -23 0 -79 14 -84 8 -2 10 2 5 15 -6 17 -5 17 15 -1 24
-21 42 -15 23 8 -8 10 -9 16 -1 21 14 9 13 21 -6 39 -19 20 -43 21 -50 2z m38
-21 c0 -5 -5 -11 -11 -13 -6 -2 -11 4 -11 13 0 9 5 15 11 13 6 -2 11 -8 11
-13z"/>
<path d="M1850 729 c-13 -47 -9 -55 18 -40 13 7 22 7 30 -1 7 -7 14 -9 18 -6
5 6 -42 88 -51 88 -2 0 -9 -18 -15 -41z"/>
<path d="M1657 753 c-15 -4 -17 -11 -11 -51 4 -26 7 -48 8 -49 0 -1 13 1 29 4
31 6 37 23 7 23 -25 0 -26 17 -2 23 14 3 13 6 -8 15 l-25 11 23 7 c12 3 22 10
22 15 0 9 -13 10 -43 2z"/>
<path d="M1358 733 c6 -2 18 -2 25 0 6 3 1 5 -13 5 -14 0 -19 -2 -12 -5z"/>
<path d="M1560 713 c0 -54 9 -70 37 -65 57 11 51 92 -7 92 -26 0 -30 -4 -30
-27z m58 -21 c-2 -9 -11 -18 -21 -20 -13 -3 -17 3 -17 28 0 28 2 30 21 20 11
-6 19 -19 17 -28z"/>
<path d="M1448 680 c-15 -45 -10 -68 8 -39 4 6 19 9 36 5 l30 -6 -23 38 c-33
56 -34 56 -51 2z"/>
<path d="M1398 694 l5 -27 -31 22 -32 22 0 -45 c0 -49 17 -64 22 -20 l3 26 28
-22 28 -22 -3 42 c-2 24 -8 45 -14 47 -7 2 -10 -6 -6 -23z"/>
<path d="M1266 664 c-17 -51 -15 -64 8 -45 8 7 24 10 36 6 26 -8 25 1 -4 48
l-24 38 -16 -47z"/>
<path d="M1133 693 c-21 -7 -15 -39 9 -55 22 -15 22 -15 -16 -22 -36 -7 -65 2
-38 11 17 6 15 23 -3 23 -8 0 -15 5 -15 10 0 6 9 10 20 10 11 0 20 5 20 10 0
6 -13 10 -30 10 -32 0 -36 -9 -24 -69 6 -26 11 -31 35 -31 16 0 29 4 29 9 0 4
11 6 25 3 36 -6 45 25 14 49 -20 15 -21 19 -6 19 9 0 17 4 17 9 0 11 -21 19
-37 14z"/>
<path d="M1188 658 c4 -42 22 -79 22 -46 0 9 9 19 19 23 45 14 31 65 -18 65
-25 0 -26 -2 -23 -42z m50 10 c-6 -18 -28 -21 -28 -4 0 9 7 16 16 16 9 0 14
-5 12 -12z"/>
<path d="M957 673 c-4 -3 -7 -26 -7 -50 0 -41 1 -43 30 -43 17 0 30 5 30 10 0
6 -9 10 -20 10 -11 0 -20 5 -20 10 0 6 7 10 15 10 8 0 15 5 15 10 0 6 -7 10
-15 10 -8 0 -15 5 -15 10 0 6 9 10 21 10 11 0 17 5 14 10 -7 11 -38 13 -48 3z"/>
<path d="M865 661 c-3 -6 -3 -28 1 -50 5 -33 11 -41 28 -41 28 0 46 18 46 46
0 35 -59 70 -75 45z m39 -17 c18 -7 21 -39 5 -49 -13 -9 -16 -6 -24 28 -8 29
-6 31 19 21z"/>
<path d="M766 639 c-2 -7 -9 -29 -15 -48 -12 -36 -6 -55 8 -32 6 9 18 11 35 7
32 -8 32 -2 1 48 -16 26 -26 35 -29 25z"/>
<path d="M674 618 c3 -13 6 -35 6 -50 0 -16 5 -28 10 -28 6 0 10 8 10 19 0 10
9 21 21 24 15 4 20 12 17 29 -2 18 -10 24 -37 26 -31 3 -33 2 -27 -20z m41
-18 c-6 -9 -9 -9 -16 1 -10 17 0 34 13 21 6 -6 7 -16 3 -22z"/>
<path d="M518 622 c-22 -4 -35 -49 -21 -71 12 -20 51 -27 66 -12 8 8 2 11 -21
11 -27 0 -32 4 -32 25 0 24 9 30 38 26 6 -1 12 2 12 7 0 13 -20 19 -42 14z"/>
<path d="M582 618 c-15 -15 -15 -51 0 -66 7 -7 24 -12 38 -12 31 0 50 17 50
45 0 28 -19 45 -50 45 -14 0 -31 -5 -38 -12z m63 -33 c0 -22 -31 -33 -47 -17
-17 17 -1 44 24 40 15 -2 23 -10 23 -23z"/>
</g>
</svg>
